# Blender v2.78 (sub 0) OBJ File: 'Arrow.blend'
# www.blender.org
mtllib Arrow.mtl
o Cube
v 1.000000 -0.287169 -1.595813
v 1.000000 0.287169 -1.595813
v -0.028507 -0.348125 -6.174352
v -0.028507 0.221989 -6.174352
v 2.996965 -0.254498 -1.617031
v 2.996965 0.294714 -1.617031
v -2.998944 -0.284527 -1.572729
v -2.998944 0.285587 -1.572729
v -1.083473 -0.284527 -1.572729
v -1.083473 0.285587 -1.572729
v 1.000000 -0.287169 6.087530
v -1.000000 -0.287169 6.087530
v 0.999999 0.287169 6.087530
v -1.000000 0.287169 6.087529
vn -0.9757 0.0000 0.2192
vn 0.8331 0.0000 -0.5531
vn 0.0106 -0.0000 0.9999
vn 0.0165 -0.9998 0.0096
vn -0.0039 0.9999 -0.0134
vn 0.0000 0.9999 -0.0138
vn 0.0000 -0.9999 0.0138
vn 0.9747 0.0000 0.2235
vn 0.0000 0.0000 1.0000
vn -0.8402 0.0000 -0.5423
vn -0.0009 0.9999 -0.0140
vn -0.0006 -1.0000 -0.0002
vn -0.0004 1.0000 -0.0001
vn 1.0000 0.0000 0.0000
vn -0.9999 0.0000 0.0109
vn -0.0111 0.0000 -0.9999
vn 0.0011 0.9999 -0.0136
usemtl Material
s off
f 1//1 2//1 4//1 3//1
f 3//2 4//2 6//2 5//2
f 5//3 6//3 2//3 1//3
f 3//4 5//4 1//4
f 4//5 2//5 6//5
f 8//6 10//6 4//6
f 3//7 9//7 7//7
f 3//8 4//8 10//8 9//8
f 9//9 10//9 8//9 7//9
f 4//10 3//10 7//10 8//10
f 10//11 2//11 4//11
f 1//12 11//12 12//12 9//12
f 2//13 10//13 14//13 13//13
f 1//14 2//14 13//14 11//14
f 11//9 13//9 14//9 12//9
f 12//15 14//15 10//15 9//15
f 2//16 1//16 9//16 10//16
f 9//17 1//17 3//17
