# Blender v2.78 (sub 0) OBJ File: 'KoopaMeshShell.blend'
# www.blender.org
mtllib KoopaMeshShell.mtl
o ShellMesh_Mesh_0050
v -0.126357 5.795483 -2.088717
v 0.933009 2.957494 -2.639190
v 1.115576 3.414412 -2.420048
v -0.388542 3.291904 -3.118438
v -1.375605 3.414411 -1.785799
v -1.320011 2.957493 -2.065540
v 0.340109 2.974896 -3.892365
v 0.663124 2.773926 -3.456930
v 0.149688 2.510894 -3.635570
v 1.147146 3.628702 -2.973909
v 0.984368 4.045196 -3.322411
v 1.167936 3.903977 -2.892366
v 0.384230 5.607141 -2.714341
v 0.846538 5.217135 -2.736980
v 0.517825 5.330326 -3.194514
v -1.108569 2.510894 -3.315250
v -1.474088 2.773926 -2.912771
v -1.398628 2.974895 -3.449692
v -1.626625 4.179253 -2.094030
v -1.691921 4.045196 -2.641038
v -1.647415 3.903977 -2.175573
v -1.220912 5.330326 -2.751841
v -1.288595 5.217059 -2.189432
v -0.874027 5.607141 -2.393945
v -1.668205 3.628702 -2.257116
v 1.441825 4.055899 -2.236634
v 1.309308 4.644486 -2.137612
v 1.055747 4.583810 -2.157324
v 1.011087 5.212515 -2.108737
v 1.168090 4.061134 -2.229396
v 1.391159 3.384844 -2.435448
v 1.550164 3.465462 -2.692628
v 1.598982 4.120270 -2.499589
v 1.353429 4.754519 -2.495970
v 1.133517 5.380221 -2.332345
v 0.624085 5.849614 -2.280601
v -0.278663 4.748667 -2.686853
v 0.796334 5.068987 -2.166795
v 0.538538 5.629316 -2.096263
v -0.164549 6.039111 -2.238559
v -0.877261 5.849614 -1.898373
v -0.934164 5.847919 -2.235171
v -0.248787 6.037801 -2.569350
v 0.513051 5.847919 -2.603693
v 1.001385 5.402320 -2.646043
v 1.296526 4.850538 -2.694091
v 1.450757 4.192882 -2.816367
v 1.406405 3.604986 -2.990541
v 1.291444 2.851927 -2.950809
v 1.158003 3.014781 -3.237942
v 0.895741 2.477937 -3.362374
v 0.946638 3.133900 -3.213456
v 1.018479 4.798025 -2.778945
v -0.278124 5.778851 -2.684620
v -1.383382 5.402320 -2.038898
v -1.665510 4.850538 -1.939953
v -1.432200 4.641175 -2.012256
v -1.859473 4.192882 -1.973602
v -1.903825 3.604986 -2.147776
v -1.803956 3.014781 -2.483804
v -1.606605 3.133900 -2.563345
v -1.514744 2.737042 -3.048368
v -1.838144 4.120270 -1.624484
v -1.535303 4.671282 -1.507521
v -1.339646 5.379759 -1.699944
v -1.134903 5.212515 -1.562345
v -1.410640 4.644486 -1.445074
v -1.783859 2.851926 -2.167796
v -1.887424 3.465462 -1.821219
v -1.574342 4.055899 -1.468713
v -1.197350 4.583810 -1.583674
v -0.974050 5.068987 -1.716037
v -0.713944 5.629316 -1.777406
v -0.153307 5.523595 -2.194592
v 0.375760 5.410098 -2.186738
v -0.614306 5.410098 -1.934717
v -1.330483 4.061134 -1.593222
v -1.624931 3.384843 -1.667527
v -1.545159 2.861551 -1.973371
v -1.568490 2.392313 -2.576743
v -1.206128 2.278661 -3.303161
v -0.531454 2.440054 -3.679691
v -0.542850 2.187571 -3.724583
v -1.345729 2.416877 -2.390326
v -1.162546 2.087085 -3.019108
v -0.271502 2.134902 -3.563807
v 0.241164 2.278662 -3.671606
v 1.174789 2.861552 -2.665832
v 0.907060 2.392082 -3.206603
v -0.403634 2.103024 -3.177651
v 0.338723 2.087085 -3.401337
v 0.800261 2.416877 -2.936718
v 0.609763 2.596210 -2.899450
v 0.147994 2.392005 -3.081478
v -0.393162 2.370600 -3.136456
v 0.276892 2.160004 -3.123752
v -0.975513 2.160004 -2.804894
v -1.160621 2.596210 -2.448692
v -0.842072 2.392005 -2.829380
v -1.216292 4.440744 -4.097261
v -0.991375 4.872252 -4.075316
v -0.722876 4.502576 -4.431441
v -0.662046 4.950023 -4.192511
v -0.316701 4.872252 -4.247104
v -0.129668 4.440744 -4.373845
v -1.545929 4.323089 -3.616012
v -1.514051 4.387922 -3.616012
v -1.154307 5.119654 -3.616012
v -0.580580 5.273654 -3.872730
v 0.045969 5.119654 -3.921625
v 0.360591 4.391079 -4.092873
v 0.389928 4.323089 -4.108889
v -0.379456 4.040191 -4.493658
v -0.734118 3.993760 -4.475793
v -1.054130 4.040191 -4.321870
v 0.161007 3.965886 -4.239096
v -0.067991 3.608683 -4.369302
v -0.711326 3.540923 -4.386089
v -1.268267 3.608683 -4.063690
v -1.407098 3.965886 -3.839851
v 0.754908 3.563022 -3.837464
v -0.449141 5.684448 -3.356291
v -0.658966 2.902362 -4.180576
v -1.736581 3.563021 -3.203138
v -1.646645 4.755752 -2.849708
v -1.557325 4.371984 -3.529310
v 0.844844 4.755752 -3.484034
v 0.442981 4.373524 -4.035970
v 1.184790 4.185769 -2.816833
vt 0.8457 0.6943
vt 0.8359 0.7412
vt 0.9824 0.7061
vt 0.8359 0.7412
vt 0.8457 0.6943
vt 0.4199 0.8154
vt 0.3145 0.8770
vt 0.4199 0.9375
vt 0.4189 0.9375
vt 0.3135 0.8770
vt 0.4189 0.8770
vt 0.9893 0.4648
vt 0.8838 0.4053
vt 0.9893 0.3428
vt 0.4199 0.9375
vt 0.3145 0.8770
vt 0.4199 0.8154
vt 0.7930 0.9453
vt 0.6875 0.8828
vt 0.7930 0.8828
vt 0.9893 0.3428
vt 0.8838 0.4053
vt 0.9893 0.4648
vt 0.4189 0.8770
vt 0.3135 0.8770
vt 0.4189 0.9375
vt 0.7930 0.8828
vt 0.6875 0.8828
vt 0.7930 0.9453
vt 0.8154 0.8057
vt 0.8311 0.8584
vt 0.8496 0.8555
vt 0.8633 0.9062
vt 0.8359 0.8057
vt 0.8174 0.7422
vt 0.8008 0.7412
vt 0.7998 0.8057
vt 0.8164 0.8623
vt 0.8516 0.9141
vt 0.9043 0.9482
vt 0.9824 0.8408
vt 0.8779 0.8984
vt 0.9121 0.9365
vt 0.9824 0.9482
vt 0.9824 0.9619
vt 0.9043 0.9482
vt 0.8955 0.9600
vt 0.9814 0.9766
vt 0.8955 0.9600
vt 0.8389 0.9209
vt 0.8037 0.8643
vt 0.7861 0.8057
vt 0.7861 0.7402
vt 0.8174 0.6836
vt 0.8018 0.6777
vt 0.8379 0.6211
vt 0.8721 0.6484
vt 0.8457 0.6943
vt 0.8350 0.7422
vt 0.8350 0.7744
vt 0.8359 0.8066
vt 0.8496 0.8555
vt 0.8779 0.8984
vt 0.9199 0.9248
vt 0.9824 0.9336
vt 0.9199 0.9248
vt 0.8389 0.9209
vt 0.8779 0.8984
vt 0.8037 0.8643
vt 0.8496 0.8555
vt 0.8359 0.8066
vt 0.7861 0.8057
vt 0.8350 0.7744
vt 0.8350 0.7422
vt 0.7861 0.7402
vt 0.8018 0.6777
vt 0.8457 0.6943
vt 0.8721 0.6484
vt 0.8379 0.6211
vt 0.7998 0.8057
vt 0.8164 0.8623
vt 0.8516 0.9141
vt 0.8633 0.9062
vt 0.8311 0.8584
vt 0.8174 0.6836
vt 0.8008 0.7412
vt 0.8154 0.8057
vt 0.8496 0.8555
vt 0.8779 0.8984
vt 0.9121 0.9365
vt 0.9824 0.9346
vt 0.9199 0.9248
vt 0.9199 0.9248
vt 0.8359 0.8057
vt 0.8174 0.7422
vt 0.8311 0.6885
vt 0.8506 0.6309
vt 0.8936 0.5840
vt 0.9180 0.6191
vt 0.9824 0.6084
vt 0.9824 0.5664
vt 0.8633 0.6406
vt 0.9033 0.5967
vt 0.9824 0.5830
vt 0.8936 0.5840
vt 0.9180 0.6191
vt 0.8311 0.6885
vt 0.8506 0.6309
vt 0.9824 0.5986
vt 0.9033 0.5967
vt 0.8633 0.6406
vt 0.8721 0.6484
vt 0.9180 0.6191
vt 0.9824 0.6084
vt 0.9111 0.6084
vt 0.9111 0.6084
vt 0.8721 0.6484
vt 0.9180 0.6191
vt 0.3633 0.7012
vt 0.3477 0.7578
vt 0.3242 0.7012
vt 0.3252 0.7656
vt 0.3477 0.7578
vt 0.3633 0.7012
vt 0.4492 0.7012
vt 0.4434 0.7100
vt 0.3877 0.8096
vt 0.3252 0.8096
vt 0.3877 0.8096
vt 0.4434 0.7109
vt 0.4492 0.7012
vt 0.4502 0.9414
vt 0.4912 0.9609
vt 0.4492 0.9854
vt 0.4961 0.9854
vt 0.4912 0.9609
vt 0.4502 0.9414
vt 0.4482 0.8564
vt 0.5117 0.8916
vt 0.5537 0.9150
vt 0.5566 0.9766
vt 0.5537 0.9150
vt 0.5117 0.8916
vt 0.4482 0.8564
vt 0.7754 0.4834
vt 0.7754 0.5459
vt 0.8770 0.5459
vt 0.7754 0.4834
vt 0.8770 0.4238
vt 0.9883 0.4834
vt 0.9883 0.5459
vt 0.9883 0.4834
vt 0.8770 0.4238
vt 0.6631 0.5000
vt 0.5840 0.4824
vt 0.6631 0.4111
vt 0.5488 0.3457
vt 0.5811 0.2725
vt 0.6631 0.2949
vt 0.5811 0.2725
vt 0.5488 0.3457
vt 0.5850 0.4824
vt 0.8076 0.3574
vt 0.8701 0.3574
vt 0.8711 0.2500
vt 0.9326 0.3574
vt 0.9922 0.2490
vt 0.9336 0.1445
vt 0.8711 0.1445
vt 0.8076 0.1445
vt 0.7490 0.2490
vt 0.7754 0.4834
vt 0.7754 0.5459
vt 0.8770 0.5459
vt 0.7754 0.4834
vt 0.8770 0.4238
vt 0.9883 0.4834
vt 0.9883 0.5459
vt 0.9883 0.4834
vt 0.8770 0.4238
vt 0.6680 0.2949
vt 0.5811 0.2725
vt 0.6689 0.3760
vt 0.7334 0.4697
vt 0.7305 0.4824
vt 0.7412 0.4824
vt 0.7773 0.3457
vt 0.7451 0.2725
vt 0.6680 0.2949
vt 0.7451 0.2725
vt 0.6689 0.3760
vt 0.7773 0.3457
vt 0.7334 0.4697
vt 0.7412 0.4824
vt 0.7295 0.4824
vt 0.5840 0.4824
vt 0.5811 0.2725
vn -0.1931 -0.3824 0.9036
vn -0.2346 -0.2970 0.9256
vn 0.2402 -0.2278 0.9436
vn 0.6487 -0.2970 0.7007
vn 0.6016 -0.3824 0.7013
vn 0.4514 -0.4588 -0.7653
vn 0.5020 -0.0844 -0.8607
vn 0.2603 -0.3205 -0.9108
vn 0.4766 0.2142 -0.8526
vn 0.8775 0.0613 -0.4757
vn 0.5451 0.1945 -0.8155
vn 0.2804 0.6299 -0.7243
vn 0.5547 0.4601 -0.6933
vn 0.5413 0.7316 -0.4143
vn -0.6641 -0.3205 -0.6755
vn -0.8724 -0.1358 -0.4696
vn -0.7624 -0.4588 -0.4563
vn -0.9234 0.2279 -0.3087
vn -0.9981 0.0612 0.0013
vn -0.8663 0.2009 -0.4574
vn -0.6739 0.7314 -0.1040
vn -0.8280 0.3990 -0.3940
vn -0.5933 0.6282 -0.5034
vn -0.8263 0.2142 -0.5210
vn 0.5201 0.2107 -0.8277
vn 0.4976 -0.1730 0.8500
vn 0.6701 0.1645 0.7238
vn -0.1757 -0.1471 0.9734
vn 0.2415 0.1818 0.9532
vn -0.1448 -0.2330 0.9616
vn 0.3148 -0.3938 0.8636
vn 0.9517 -0.2757 0.1350
vn 0.9914 0.1307 0.0102
vn 0.9309 0.3580 -0.0724
vn 0.8170 0.5601 0.1372
vn 0.4211 0.7360 0.5301
vn 0.2314 -0.3469 0.9089
vn -0.2567 -0.2082 0.9438
vn 0.0126 -0.0042 0.9999
vn 0.2425 0.1847 0.9524
vn 0.0772 0.9498 0.3033
vn -0.1188 0.7353 0.6672
vn -0.5690 0.7916 -0.2228
vn -0.1740 0.7092 -0.6832
vn 0.3905 0.7913 -0.4706
vn 0.5939 0.4698 -0.6531
vn 0.5244 0.2932 -0.7994
vn 0.4672 0.2922 -0.8345
vn 0.6840 0.0935 -0.7235
vn 0.8815 -0.4173 -0.2209
vn 0.4409 0.1607 -0.8831
vn 0.6383 -0.3271 -0.6968
vn 0.5977 0.1078 -0.7944
vn 0.6706 0.2830 -0.6857
vn -0.1468 0.8038 -0.5765
vn -0.8448 0.4542 -0.2829
vn -0.7551 0.2643 -0.5999
vn -0.8457 0.2495 -0.4718
vn -0.4308 0.1162 -0.8949
vn -0.2750 0.0254 -0.9611
vn -0.5860 0.2293 -0.7772
vn -0.4308 0.1163 -0.8949
vn -0.8393 0.2485 -0.4836
vn -0.8000 0.3178 -0.5090
vn -0.9468 0.0933 -0.3081
vn -0.6990 0.3426 -0.6277
vn -0.9048 0.1078 -0.4119
vn -0.7038 0.2391 -0.6689
vn -0.0937 0.7263 -0.6810
vn 0.4674 0.8075 -0.3598
vn -0.3525 0.6025 -0.7160
vn -0.8291 0.0965 0.5506
vn -0.7835 0.3385 0.5211
vn -0.8989 0.3588 -0.2513
vn -0.5986 0.5611 0.5717
vn 0.2415 0.1830 0.9530
vn -0.1100 0.1082 0.9880
vn -0.8911 -0.3590 -0.2777
vn -0.8980 -0.4157 0.1441
vn -0.7971 0.1447 -0.5862
vn -0.7733 -0.2749 0.5713
vn -0.0323 -0.1736 0.9843
vn 0.6198 -0.1471 0.7709
vn 0.6768 -0.2082 0.7061
vn 0.4671 -0.0042 0.8842
vn 0.2235 -0.4235 0.8779
vn -0.1912 -0.3574 0.9142
vn 0.6051 -0.3574 0.7114
vn 0.5870 -0.2330 0.7753
vn 0.1338 -0.3941 0.9093
vn -0.1788 -0.6159 0.7673
vn -0.7151 -0.6881 0.1229
vn -0.6582 -0.3894 -0.6443
vn 0.4675 0.8075 -0.3598
vn 0.1406 0.8175 -0.5586
vn -0.1568 0.4299 -0.8891
vn -0.8294 0.0762 -0.5534
vn -0.6838 -0.2329 -0.6915
vn -0.2441 -0.1454 -0.9588
vn -0.5850 -0.1123 -0.8032
vn -0.1377 -0.2108 -0.9678
vn 0.1760 -0.7166 0.6749
vn -0.2480 -0.9679 0.0398
vn -0.0434 -0.9465 -0.3199
vn -0.5601 -0.7592 -0.3314
vn -0.0162 -0.9579 -0.2865
vn -0.1740 -0.5240 -0.8338
vn 0.2862 -0.3556 -0.8897
vn 0.5222 -0.6163 0.5895
vn 0.6352 -0.7655 -0.1022
vn 0.1155 -0.8831 0.4547
vn 0.2546 -0.9625 -0.0933
vn 0.1678 -0.7164 0.6772
vn -0.2648 -0.3037 0.9152
vn -0.1843 -0.1737 0.9674
vn 0.2443 -0.1398 0.9596
vn -0.0296 -0.5501 0.8346
vn 0.4251 -0.5501 0.7188
vn 0.6702 -0.3038 0.6772
vn 0.6245 -0.1738 0.7615
vn -0.7620 0.2361 -0.6030
vn -0.5203 0.5439 -0.6584
vn -0.2360 0.2924 -0.9267
vn -0.1966 0.6043 -0.7721
vn 0.1421 0.5438 -0.8271
vn 0.3809 0.2362 -0.8939
vn -0.9175 0.1750 -0.3571
vn -0.8229 0.4046 -0.3989
vn -0.7027 0.5858 -0.4037
vn -0.1624 0.7529 -0.6378
vn 0.4241 0.5858 -0.6906
vn 0.5320 0.4047 -0.7438
vn 0.6350 0.1752 -0.7524
vn 0.0993 -0.0223 -0.9948
vn -0.2464 -0.0554 -0.9676
vn -0.5629 -0.0223 -0.8262
vn 0.5009 -0.0056 -0.8655
vn 0.3397 -0.1883 -0.9215
vn -0.2385 -0.2562 -0.9367
vn -0.7390 -0.1884 -0.6468
vn -0.8538 -0.0057 -0.5205
vn 0.7446 -0.1375 -0.6532
vn -0.0927 0.9267 -0.3641
vn -0.2046 -0.5590 -0.8035
vn -0.9663 -0.1375 -0.2176
vn -0.9677 0.2054 -0.1459
vn -0.9344 0.3562 -0.0035
vn -0.9258 0.2640 -0.2707
vn -0.9234 0.2280 -0.3087
vn 0.8104 0.3569 -0.4647
vn 0.6837 0.2641 -0.6803
usemtl Mesh_0053_rip
s 1
f 2/1/1 3/2/2 4/3/3
f 4/3/3 5/4/4 6/5/5
f 7/6/6 8/7/7 9/8/8
f 10/9/9 11/10/10 12/11/11
f 13/12/12 14/13/13 15/14/14
f 16/15/15 17/16/16 18/17/17
f 19/18/18 20/19/19 21/20/20
f 22/21/21 23/22/22 24/23/23
f 21/24/20 20/25/19 25/26/24
f 12/27/11 11/28/10 129/29/25
f 26/30/26 27/31/27 28/32/28
f 27/31/27 29/33/29 28/32/28
f 30/34/30 31/35/31 26/30/26
f 31/35/31 32/36/32 26/30/26
f 32/36/32 33/37/33 26/30/26
f 26/30/26 33/37/33 27/31/27
f 33/37/33 34/38/34 27/31/27
f 34/38/34 35/39/35 27/31/27
f 27/31/27 35/39/35 29/33/29
f 35/39/35 36/40/36 29/33/29
f 26/30/26 28/32/28 30/34/30
f 30/34/30 28/32/28 37/41/37
f 37/41/37 28/32/28 38/42/38
f 28/32/28 29/33/29 38/42/38
f 38/42/38 29/33/29 39/43/39
f 29/33/29 36/40/36 39/43/39
f 39/43/39 36/40/36 1/44/40
f 36/40/36 40/45/41 1/44/40
f 1/44/40 40/45/41 41/46/42
f 41/46/42 40/45/41 42/47/43
f 42/47/43 40/45/41 43/48/44
f 43/48/44 40/45/41 44/49/45
f 40/45/41 36/40/36 44/49/45
f 36/40/36 35/39/35 44/49/45
f 44/49/45 35/39/35 45/50/46
f 35/39/35 34/38/34 45/50/46
f 45/50/46 34/38/34 46/51/47
f 34/38/34 47/52/48 46/51/47
f 34/38/34 33/37/33 47/52/48
f 47/52/48 33/37/33 48/53/49
f 33/37/33 32/36/32 48/53/49
f 32/36/32 49/54/50 48/53/49
f 48/53/49 49/54/50 50/55/51
f 49/54/50 51/56/52 50/55/51
f 51/56/52 8/57/7 50/55/51
f 8/57/7 52/58/53 50/55/51
f 52/58/53 10/59/9 50/55/51
f 50/55/51 10/59/9 48/53/49
f 48/53/49 10/59/9 47/52/48
f 10/59/9 12/60/11 47/52/48
f 12/60/11 129/61/25 47/52/48
f 47/52/48 129/61/25 46/51/47
f 129/61/25 53/62/54 46/51/47
f 53/62/54 14/63/13 46/51/47
f 46/51/47 14/63/13 45/50/46
f 14/63/13 13/64/12 45/50/46
f 45/50/46 13/64/12 44/49/45
f 44/49/45 13/64/12 43/48/44
f 13/64/12 54/65/55 43/48/44
f 54/65/55 24/66/23 43/48/44
f 43/48/44 24/66/23 42/47/43
f 42/47/43 24/66/23 55/67/56
f 24/66/23 23/68/22 55/67/56
f 55/67/56 23/68/22 56/69/57
f 23/68/22 57/70/58 56/69/59
f 57/70/60 19/71/61 56/69/62
f 56/69/57 19/71/63 58/72/64
f 19/71/63 21/73/20 58/72/64
f 21/73/20 25/74/24 58/72/64
f 58/72/64 25/74/24 59/75/65
f 59/75/65 25/74/24 60/76/66
f 25/74/24 61/77/67 60/76/66
f 61/77/67 17/78/68 60/76/66
f 17/78/69 62/79/70 60/76/71
f 59/75/65 63/80/72 58/72/64
f 63/80/72 64/81/73 58/72/64
f 58/72/64 64/81/73 56/69/74
f 56/69/74 64/81/73 55/67/56
f 64/81/73 65/82/75 55/67/56
f 55/67/56 65/82/75 42/47/43
f 42/47/43 65/82/75 41/46/42
f 41/46/42 65/82/75 66/83/76
f 66/83/76 65/82/75 67/84/77
f 65/82/75 64/81/73 67/84/77
f 67/84/77 64/81/73 63/80/72
f 62/79/78 68/85/79 60/76/80
f 60/76/80 68/85/79 59/75/65
f 68/85/79 69/86/81 59/75/65
f 59/75/65 69/86/81 63/80/72
f 69/86/81 70/87/82 63/80/72
f 63/80/72 70/87/82 67/84/77
f 70/87/82 71/88/83 67/84/77
f 67/84/77 71/88/83 66/83/76
f 71/88/83 72/89/84 66/83/76
f 72/89/84 73/90/85 66/83/76
f 66/83/76 73/90/85 41/46/42
f 41/46/42 73/90/85 1/44/40
f 73/90/85 74/91/86 1/44/40
f 1/44/40 74/91/86 39/43/39
f 74/91/86 75/92/87 39/43/39
f 39/43/39 75/92/87 38/42/38
f 38/42/38 75/92/87 37/41/37
f 75/92/87 74/91/86 37/41/37
f 37/41/37 74/91/86 76/93/88
f 74/91/86 73/90/85 76/93/88
f 73/90/85 72/89/84 76/93/88
f 76/93/88 72/89/84 37/41/37
f 72/89/84 71/88/83 37/41/37
f 37/41/37 71/88/83 77/94/89
f 71/88/83 70/87/82 77/94/89
f 77/94/89 70/87/82 78/95/90
f 70/87/82 69/86/81 78/95/90
f 78/95/90 69/86/81 79/96/91
f 69/86/81 68/85/79 79/96/91
f 79/96/91 68/85/79 80/97/92
f 68/85/79 62/79/78 80/97/92
f 80/97/92 62/79/78 81/98/93
f 62/79/94 17/78/95 81/98/96
f 17/78/97 16/99/15 81/98/98
f 16/99/15 82/100/99 81/98/100
f 82/100/99 83/101/101 81/98/100
f 79/96/91 80/97/92 84/102/102
f 84/102/102 80/97/92 85/103/103
f 80/97/92 81/98/93 85/103/103
f 85/103/103 81/98/93 86/104/104
f 81/98/105 83/101/106 86/104/104
f 86/104/104 83/101/107 87/105/108
f 83/101/101 82/100/99 87/105/108
f 87/105/108 82/100/99 9/106/8
f 84/102/102 6/5/5 79/96/91
f 79/96/91 6/5/5 78/95/90
f 6/5/5 5/4/4 78/95/90
f 78/95/90 5/4/4 77/94/89
f 77/94/89 5/4/4 37/41/37
f 5/4/4 4/3/3 37/41/37
f 4/3/3 3/2/2 37/41/37
f 37/41/37 3/2/2 30/34/30
f 30/34/30 3/2/2 31/35/31
f 3/2/2 2/1/1 31/35/31
f 2/1/1 88/107/109 31/35/31
f 31/35/31 88/107/109 32/36/32
f 32/36/32 88/107/109 49/54/50
f 88/107/109 89/108/110 49/54/50
f 49/54/50 89/108/110 51/56/52
f 89/108/110 87/105/108 51/56/52
f 51/56/52 87/105/108 8/57/7
f 87/105/108 9/106/8 8/57/7
f 85/103/103 86/104/104 90/109/111
f 90/109/111 86/104/104 91/110/112
f 86/104/104 87/105/108 91/110/112
f 87/105/108 89/108/110 91/110/112
f 91/110/112 89/108/110 92/111/113
f 89/108/110 88/107/109 92/111/113
f 88/107/109 2/1/1 92/111/113
f 92/111/113 2/1/1 93/112/114
f 2/1/1 4/3/3 93/112/114
f 93/112/114 4/3/3 94/113/115
f 4/3/3 95/114/116 94/113/115
f 94/113/115 95/114/116 96/115/117
f 96/115/117 95/114/116 90/109/111
f 95/114/116 97/116/118 90/109/111
f 90/109/111 97/116/118 85/103/103
f 97/116/118 84/102/102 85/103/103
f 90/109/111 91/110/112 96/115/117
f 91/110/112 92/111/113 96/115/117
f 92/111/113 93/112/114 96/115/117
f 96/115/117 93/112/114 94/113/115
f 6/5/5 98/117/119 4/3/3
f 98/117/119 99/118/120 4/3/3
f 4/3/3 99/118/120 95/114/116
f 95/114/116 99/118/120 97/116/118
f 99/118/120 98/117/119 97/116/118
f 97/116/118 98/117/119 84/102/102
f 98/117/119 6/5/5 84/102/102
f 100/119/121 101/120/122 102/121/123
f 101/120/122 103/122/124 102/121/123
f 103/122/124 104/123/125 102/121/123
f 102/121/123 104/123/125 105/124/126
f 106/125/127 107/126/128 100/119/121
f 107/126/128 108/127/129 100/119/121
f 100/119/121 108/127/129 101/120/122
f 108/127/129 109/128/130 101/120/122
f 101/120/122 109/128/130 103/122/124
f 103/122/124 109/128/130 104/123/125
f 109/128/130 110/129/131 104/123/125
f 104/123/125 110/129/131 105/124/126
f 110/129/131 111/130/132 105/124/126
f 105/124/126 111/130/132 112/131/133
f 105/132/126 113/133/134 102/134/123
f 113/133/134 114/135/135 102/134/123
f 114/135/135 115/136/136 102/134/123
f 102/134/123 115/136/136 100/137/121
f 112/138/133 116/139/137 105/132/126
f 116/139/137 117/140/138 105/132/126
f 105/132/126 117/140/138 113/133/134
f 117/140/138 118/141/139 113/133/134
f 113/133/134 118/141/139 114/135/135
f 114/135/135 118/141/139 115/136/136
f 118/141/139 119/142/140 115/136/136
f 115/136/136 119/142/140 100/137/121
f 119/142/140 120/143/141 100/137/121
f 100/137/121 120/143/141 106/144/127
f 117/145/138 116/146/137 121/147/142
f 116/146/137 112/148/133 121/147/142
f 112/148/133 11/149/10 121/147/142
f 11/149/10 10/150/9 121/147/142
f 10/150/9 52/151/53 121/147/142
f 52/151/53 8/152/7 121/147/142
f 8/152/7 7/153/6 121/147/142
f 121/147/142 7/153/6 117/145/138
f 109/154/130 108/155/129 122/156/143
f 108/155/129 22/157/21 122/156/143
f 22/157/21 24/158/23 122/156/143
f 24/158/23 54/159/55 122/156/143
f 54/159/55 13/160/12 122/156/143
f 13/160/12 15/161/14 122/156/143
f 15/161/14 110/162/131 122/156/143
f 122/156/143 110/162/131 109/154/130
f 119/163/140 118/164/139 123/165/144
f 118/164/139 117/166/138 123/165/144
f 117/166/138 7/167/6 123/165/144
f 7/167/6 9/168/8 123/165/144
f 9/168/8 82/169/99 123/165/144
f 82/169/99 16/170/15 123/165/144
f 16/170/15 18/171/17 123/165/144
f 123/165/144 18/171/17 119/163/140
f 106/172/127 120/173/141 124/174/145
f 120/173/141 119/175/140 124/174/145
f 119/175/140 18/176/17 124/174/145
f 18/176/17 17/177/16 124/174/145
f 17/177/16 61/178/67 124/174/145
f 61/178/67 25/179/24 124/174/145
f 25/179/24 20/180/19 124/174/145
f 124/174/145 20/180/19 106/172/127
f 57/181/146 23/182/22 125/183/147
f 23/182/22 22/157/21 125/183/147
f 22/157/21 108/155/129 125/183/147
f 125/183/147 108/155/129 126/184/148
f 108/155/129 107/185/128 126/184/148
f 107/185/128 106/186/127 126/184/148
f 106/186/127 20/187/19 126/184/148
f 126/184/148 20/187/19 125/183/147
f 20/187/19 19/188/63 125/183/147
f 125/183/147 19/188/149 57/181/146
f 53/189/54 129/190/25 127/191/150
f 129/190/25 11/192/10 127/191/150
f 127/191/150 11/192/10 128/193/151
f 11/192/10 112/194/133 128/193/151
f 112/194/133 111/195/132 128/193/151
f 111/195/132 110/196/131 128/193/151
f 128/193/151 110/196/131 127/191/150
f 110/196/131 15/161/14 127/191/150
f 15/161/14 14/197/13 127/191/150
f 127/191/150 14/197/13 53/189/54
